<?xml version="1.0" standalone="no"?>
<!DOCTYPE svg PUBLIC "-//W3C//DTD SVG 20010904//EN"
 "http://www.w3.org/TR/2001/REC-SVG-20010904/DTD/svg10.dtd">
<svg version="1.0" xmlns="http://www.w3.org/2000/svg"
 width="256.000000pt" height="256.000000pt" viewBox="0 0 256.000000 256.000000"
 preserveAspectRatio="xMidYMid meet">
<metadata>
Created by potrace 1.11, written by Peter Selinger 2001-2013
</metadata>
<g transform="translate(0.000000,256.000000) scale(0.100000,-0.100000)"
fill="#000000" stroke="none">
<path d="M282 2086 c-7 -12 -6 -1141 1 -1153 4 -6 295 -10 328 -4 4 0 7 81 7
179 0 97 0 189 1 204 l1 27 163 0 c89 0 170 0 180 0 16 1 17 12 15 124 l-3
122 -177 0 c-137 0 -178 3 -179 12 0 7 -1 62 -2 122 l-2 109 25 4 c14 2 116 3
228 3 l202 -1 1 58 c1 74 1 140 0 176 l-1 27 -391 0 c-229 0 -393 -4 -397 -9z"/>
<path d="M1241 2080 c-4 -8 -7 -271 -6 -585 l0 -570 167 0 c107 0 169 3 171
10 2 5 3 99 3 207 l-1 197 90 0 c50 0 131 0 182 0 l91 1 -1 123 -2 122 -180 0
-180 0 0 122 c-1 77 3 124 10 126 5 1 108 2 228 2 l218 -1 -3 130 -3 131 -388
0 c-337 0 -390 -2 -396 -15z"/>
<path d="M2170 1235 l0 -545 -825 0 c-653 0 -825 3 -826 13 -1 6 -1 31 -1 55
0 24 -4 42 -9 40 -21 -7 -220 -161 -217 -168 4 -11 206 -160 217 -160 5 0 9
17 9 38 0 20 0 44 1 52 1 13 106 15 886 14 l885 0 0 603 0 603 -60 0 -60 0 0
-545z"/>
</g>
</svg>
